# xmcd CD database file
#
# Track frame offsets:
#	150
#	15688
#	33225
#	58740
#	71304
#	87765
#	103139
#	119144
#	131429
#	143892
#	165137
#	176878
#
# Disc length: 2537 seconds
#
# Revision: 0
# Processed by: cddbd v1.5.1PL0 Copyright (c) Steve Scherf et al.
# Submitted via: CDex 1.51
#
DISCID=a009e70c
DTITLE=Antonio Negreiro - Body And Soul
DYEAR=1900
DGENRE=Jazz
TTITLE0=Fly Me To the Moon
TTITLE1=Love Letters
TTITLE2=I´ve Got You Under My Skin
TTITLE3=Body And Soul
TTITLE4=Secret Love
TTITLE5=You´ve Changed
TTITLE6=As Time Goes By
TTITLE7=The Shadow of Your Smile
TTITLE8=Embraceable You
TTITLE9=Smile
TTITLE10=Unforgetable
TTITLE11=The More I See You
EXTD=
EXTT0=
EXTT1=
EXTT2=
EXTT3=
EXTT4=
EXTT5=
EXTT6=
EXTT7=
EXTT8=
EXTT9=
EXTT10=
EXTT11=
PLAYORDER=
